<?xml version="1.0" encoding="utf-8"?>
<!-- Generator: Adobe Illustrator 16.0.0, SVG Export Plug-In . SVG Version: 6.00 Build 0)  -->
<!DOCTYPE svg PUBLIC "-//W3C//DTD SVG 1.1//EN" "http://www.w3.org/Graphics/SVG/1.1/DTD/svg11.dtd">
<svg version="1.1" xmlns="http://www.w3.org/2000/svg" xmlns:xlink="http://www.w3.org/1999/xlink" x="0px" y="0px"
	 width="2225.52px" height="2569.68px" viewBox="0 0 2225.52 2569.68" enable-background="new 0 0 2225.52 2569.68"
	 xml:space="preserve">
<g id="Shape_1_1_" enable-background="new    ">
	<g id="Shape_1">
		<g>
			<polygon fill="#006600" points="1112.76,1168.215 1011.76,1226.528 1011.76,1343.153 1112.76,1401.464 1213.76,1343.152 
				1213.76,1226.528 			"/>
		</g>
	</g>
</g>
<g id="ENLDC_modern__x28_bold_x29__1_" enable-background="new    ">
	<g id="ENLDC_modern__x28_bold_x29_">
		<g>
			<path fill="#FFFFFF" d="M1160.982,1292.781l-7.304-3.309c-1.374,1.652-2.832,2.9-5.069,4.217l5.308,11.093L1160.982,1292.781z
				 M1161.52,1258.461l-10.569-10.569l-3.057,4.307c0,0,6.922,5.269,10.278,7.817
				C1159.404,1259.448,1160.526,1258.926,1161.52,1258.461z M1142.122,1330.616l45.776-45.776l-22.813-22.813
				c-2.341,1.171-4.923,2.411-7.452,3.522c-7.862-5.972-16.684-11.472-16.684-11.472l6.237-9.949l-9.776-9.777l-2.018,5.852
				l-2.793-1.846l1.289-7.5l-12.075-9.021v21.133c3.506,1.234,7.44,3.399,10.846,5.415l-1.271,3.359
				c-7.431-2.453-11.589-3.62-17.42-4.532v-36.3l-1.209-1.209l-47.278,47.279c0.431,0.671,0.862,1.343,1.293,2.014
				c1.402,1.608,2.804,3.217,4.206,4.826c0.546,1.619,1.091,3.239,1.636,4.858c0.455,0.503,0.91,1.005,1.366,1.508
				c0.505,0.469,1.011,0.938,1.516,1.408c3.286-1.677,5.368-3.15,10.626-5.866c7.909-4.085,14.151-8.66,27.845-8.138
				c13.695,0.523,18.434,3.465,25.559,7.06c6.76,3.411,11.423,6.389,12.925,7.337c1.659-0.072,5.147,0,5.147,0
				s-2.084,3.066-7.337,5.409c-3.693-1.308-6.829-3.235-15.458-6.765s-15.573-3.906-21.064-3.971
				c-4.641-0.055-12.632,0.081-20.606,4.135c-4.351,2.211-7.106,4.339-9.597,6.05c0.593,0.242,1.186,0.483,1.78,0.724
				c2.455,0.366,4.911,0.731,7.366,1.095c0.055,0.037,0.109,0.073,0.164,0.11c2.033-1.353,4.844-3.18,7.101-4.482
				c0,0,6.112,6.774,14.315,6.471c8.432-0.311,14.347-6.651,14.347-6.651l11.423,5.049c0,0-10.517,8.452-25.181,8.399
				c-8.283-0.029-15.223-2.338-19.62-4.289c0.124,0.486,0.249,0.972,0.373,1.458c0.296,1.153,0.593,2.307,0.889,3.461
				c1.021,2.248,2.043,4.499,3.064,6.747c0.614,0.026,1.228,0.054,1.842,0.08c0.791,0.594,1.198,1.703,1.714,2.572
				c0.232,0.396,0.466,0.794,0.698,1.19c-0.047,0.533-0.095,1.068-0.142,1.604c0.428,0.655,0.857,1.313,1.286,1.969
				c0.577-0.144,1.153-0.287,1.73-0.429c0.104-0.116,0.114-0.319,0.175-0.478c0.101-0.269,0.201-0.539,0.301-0.81
				c0.026-0.113-0.495-1.369-0.572-1.54c0.239-0.068,0.477-0.136,0.715-0.206c0.423,0.323,0.846,0.645,1.27,0.969
				c0.529,0.741,1.058,1.482,1.588,2.222c0.163,0.483,0.328,0.964,0.491,1.446c0.122,0.338,0.244,0.677,0.365,1.016
				c0.005,0.232,0.011,0.465,0.016,0.697c0.054,0.326,0.114,0.862,0.032,1.192c-0.056,0.226-0.301,0.888-0.223,1.11
				c1.455,3.582,2.911,7.167,4.365,10.75c-0.269,2.284-0.538,4.572-0.809,6.856c-1.81,0.35-3.62,0.699-5.43,1.049
				c-0.519-0.01-1.037-0.021-1.556-0.032c-0.175,0.439-0.35,0.879-0.524,1.317v3.002c0.275,0.391,0.551,0.783,0.826,1.173h0.031
				c0.18-0.141,0.36-0.284,0.541-0.428c0.281,0.021,0.56,0.042,0.841,0.064c0.111,0.115,0.223,0.232,0.333,0.348
				c0.286,0.282,0.571,0.562,0.857,0.844c0.105,0.501,0.212,1.005,0.317,1.507c0.096,0.412,0.19,0.826,0.286,1.238
				c-0.243,1.879-0.487,3.759-0.73,5.636c0.17,1.53,0.339,3.061,0.508,4.588c0.456,0.19,0.91,0.381,1.366,0.572
				c0.019,0.018-0.138,0.929-0.175,1.08c-0.211,1.084-0.423,2.17-0.634,3.254c-0.435,2.195-0.868,4.393-1.302,6.59
				c0,0.075,0,0.15,0.001,0.226l2.802,2.802l3.366-3.366v-59.835c8.514-0.691,12.225-1.812,16.13-3.188l2.058,7.403
				c-4.314,2.533-9.755,2.99-9.755,2.99v44.196l13.337-13.337l-4.268-18.996l4.02-2.058L1142.122,1330.616z M1151.179,1283.001
				l15.785,6.374l-15.148,26.228l-11.415-25.492C1146.514,1287.094,1147.785,1286.064,1151.179,1283.001z"/>
		</g>
	</g>
</g>
<g id="Hex__x28_ENL_x29__1_" enable-background="new    ">
	<g id="Hex__x28_ENL_x29_">
		<g>
			<path fill="#FFFFFF" d="M1184.1,1326.027l-66.057,38.137v-1.264l-5.283,5.283l-5.282-5.282v1.263l-66.056-38.137v-29.182
				l-10.566-10.566v45.848l81.905,47.287l81.904-47.287v-45.848l-10.564,10.564V1326.027z M1112.76,1190.264l-81.905,47.288v45.849
				l10.566-10.566v-23.083l14.634,8.449l7.734-7.734l-17.085-9.865l63.764-36.813l2.292-2.292l2.29,2.29l63.767,36.815
				l-17.086,9.865l7.734,7.734l14.635-8.449v23.084l10.564,10.564v-45.849L1112.76,1190.264z M1194.449,1284.84l-81.689-81.69
				l-81.69,81.69l81.69,81.689L1194.449,1284.84z M1112.76,1208.051l76.788,76.789l-76.788,76.788l-76.788-76.788L1112.76,1208.051z
				"/>
		</g>
	</g>
</g>
<g id="Gloss_1_" opacity="0.2" enable-background="new    ">
	<g id="Gloss">
		<g>
			<polygon fill="#FFFFFF" points="1112.76,1179.303 1047.462,1217.003 1124.451,1278.091 1132.604,1378.92 1204.157,1337.609 
				1204.157,1232.071 			"/>
		</g>
	</g>
</g>
</svg>
